<svg xmlns="http://www.w3.org/2000/svg" width="337.174" height="66.679" viewBox="0 0 337.174 66.679">
  <g id="Group_6079" data-name="Group 6079" transform="translate(0 0.5)">
    <g id="Group_480" data-name="Group 480" transform="translate(199.99 0)">
      <g id="Group_478" data-name="Group 478" transform="translate(0 0)">
        <path id="Path_333" data-name="Path 333" d="M1182.108,503.368H1060.926a7.76,7.76,0,0,1-7.751-7.752V445.44a7.76,7.76,0,0,1,7.751-7.751h121.182a7.76,7.76,0,0,1,7.751,7.751v50.177A7.76,7.76,0,0,1,1182.108,503.368Zm-121.182-63.431a5.509,5.509,0,0,0-5.5,5.5v50.177a5.51,5.51,0,0,0,5.5,5.5h121.182a5.51,5.51,0,0,0,5.5-5.5V445.44a5.51,5.51,0,0,0-5.5-5.5Z" transform="translate(-1053.175 -437.689)" fill="#eebe27" stroke="#eebe27" stroke-width="1"/>
      </g>
      <g id="Group_479" data-name="Group 479" transform="translate(19.371 15.851)">
        <path id="Path_334" data-name="Path 334" d="M1131.094,501.55h-13.953v-13.7h-7v33.643h7V507.314h13.953v14.178h7V487.849h-7Z" transform="translate(-1110.137 -487.849)" fill="#f8c629"/>
        <path id="Path_335" data-name="Path 335" d="M1244.032,508.633c0,4.391-2.35,6.809-6.618,6.809-4.237,0-6.571-2.418-6.571-6.809V487.849h-7v20.736c0,8.043,5.291,13.24,13.48,13.24,6.35,0,13.766-3.468,13.766-13.24V487.849h-7.052Z" transform="translate(-1187.321 -487.849)" fill="#f8c629"/>
        <path id="Path_336" data-name="Path 336" d="M1354.816,504.2a7.779,7.779,0,0,0,5.254-7.6c0-5.318-4.317-8.754-11-8.754h-13.909v33.642h14.53c6.767,0,11.14-3.6,11.14-9.183A8.234,8.234,0,0,0,1354.816,504.2Zm-12.648,2.871h6.427c3.17,0,5.139,1.694,5.139,4.422,0,2.689-1.821,4.232-5,4.232h-6.571Zm5.95-5.477h-5.95v-8.033h5.95c3.053,0,4.8,1.473,4.8,4.04S1351.215,501.6,1348.117,501.6Z" transform="translate(-1262.889 -487.849)" fill="#f8c629"/>
      </g>
    </g>
    <g id="Group_481" data-name="Group 481" transform="translate(0 13.455)">
      <path id="Path_337" data-name="Path 337" d="M448.849,512.378l-10.492-24.529H430.5v33.643h7V500.466l8.707,21.026h5.275l8.659-21.022v21.022h7V487.849h-7.809Z" transform="translate(-430.5 -485.194)" fill="#fff"/>
      <path id="Path_338" data-name="Path 338" d="M722.529,504.2a7.779,7.779,0,0,0,5.254-7.6c0-5.318-4.317-8.754-11-8.754H702.876v33.642h14.53c6.768,0,11.14-3.6,11.14-9.183A8.234,8.234,0,0,0,722.529,504.2Zm-12.648,2.871h6.427c3.169,0,5.138,1.694,5.138,4.422,0,2.689-1.821,4.232-5,4.232h-6.571Zm5.95-5.477h-5.95v-8.033h5.95c3.053,0,4.8,1.473,4.8,4.04S718.929,501.6,715.831,501.6Z" transform="translate(-615.395 -485.194)" fill="#fff"/>
      <rect id="Rectangle_385" data-name="Rectangle 385" width="7.005" height="33.643" transform="translate(119.369 2.655)" fill="#fff"/>
      <path id="Path_339" data-name="Path 339" d="M854.2,487.849h-7v33.643h20.232l-.084-7H854.118Z" transform="translate(-713.363 -485.194)" fill="#fff"/>
      <path id="Path_340" data-name="Path 340" d="M950.271,494.705v-7H930.039v33.69h20.232v-7H937.043v-6.338h13.228v-7H937.043v-6.338Z" transform="translate(-769.598 -485.093)" fill="#fff"/>
      <path id="Path_341" data-name="Path 341" d="M610.11,541.994l-1.822-6.052-1.822-6.052-5.591,2.948-5.591,2.948,3.877,1.624c-1.511,4.456-5.234,7.146-10.321,7.146a10.232,10.232,0,0,1-9.6-5.573l-6.693,3.516a19.2,19.2,0,0,0,33.713-2.118Z" transform="translate(-526.923 -513.732)" fill="#fff"/>
      <path id="Path_342" data-name="Path 342" d="M579.082,479.582a18.521,18.521,0,0,0-17.42,11.157l-3.682-1.542,1.821,6.052,1.822,6.052,5.591-2.948,5.591-2.948-4.048-1.7c1.509-4.462,5.234-7.155,10.324-7.155a10.234,10.234,0,0,1,9.59,5.546l6.675-3.544A18.557,18.557,0,0,0,579.082,479.582Z" transform="translate(-517.037 -479.582)" fill="#f8c629"/>
    </g>
  </g>
</svg>
